TITLE ""
FILE "Step3_Track16.mp3" MP3
  TRACK 01 AUDIO
    TITLE "Step3_Track16_01"
    INDEX 01 00:00:00
  TRACK 02 AUDIO
    TITLE "Step3_Track16_02"
    INDEX 01 00:00:22
  TRACK 03 AUDIO
    TITLE "Step3_Track16_03"
    INDEX 01 00:01:70
  TRACK 04 AUDIO
    TITLE "Step3_Track16_04"
    INDEX 01 00:02:48
  TRACK 05 AUDIO
    TITLE "Step3_Track16_05"
    INDEX 01 00:03:46
  TRACK 06 AUDIO
    TITLE "Step3_Track16_06"
    INDEX 01 00:03:58
  TRACK 07 AUDIO
    TITLE "Step3_Track16_07"
    INDEX 01 00:05:72
  TRACK 08 AUDIO
    TITLE "Step3_Track16_08"
    INDEX 01 00:06:27
  TRACK 09 AUDIO
    TITLE "Step3_Track16_09"
    INDEX 01 00:07:22
  TRACK 10 AUDIO
    TITLE "Step3_Track16_10"
    INDEX 01 00:07:36
  TRACK 11 AUDIO
    TITLE "Step3_Track16_11"
    INDEX 01 00:09:56
  TRACK 12 AUDIO
    TITLE "Step3_Track16_12"
    INDEX 01 00:10:03
  TRACK 13 AUDIO
    TITLE "Step3_Track16_13"
    INDEX 01 00:11:02
  TRACK 14 AUDIO
    TITLE "Step3_Track16_14"
    INDEX 01 00:11:08
  TRACK 15 AUDIO
    TITLE "Step3_Track16_15"
    INDEX 01 00:13:19
  TRACK 16 AUDIO
    TITLE "Step3_Track16_16"
    INDEX 01 00:13:52
  TRACK 17 AUDIO
    TITLE "Step3_Track16_17"
    INDEX 01 00:14:50
  TRACK 18 AUDIO
    TITLE "Step3_Track16_18"
    INDEX 01 00:14:54
  TRACK 19 AUDIO
    TITLE "Step3_Track16_19"
    INDEX 01 00:17:54
  TRACK 20 AUDIO
    TITLE "Step3_Track16_20"
    INDEX 01 00:18:06
  TRACK 21 AUDIO
    TITLE "Step3_Track16_21"
    INDEX 01 00:19:00
  TRACK 22 AUDIO
    TITLE "Step3_Track16_22"
    INDEX 01 00:19:19
  TRACK 23 AUDIO
    TITLE "Step3_Track16_23"
    INDEX 01 00:21:10
  TRACK 24 AUDIO
    TITLE "Step3_Track16_24"
    INDEX 01 00:21:20
  TRACK 25 AUDIO
    TITLE "Step3_Track16_25"
    INDEX 01 00:22:24
  TRACK 26 AUDIO
    TITLE "Step3_Track16_26"
    INDEX 01 00:22:33
  TRACK 27 AUDIO
    TITLE "Step3_Track16_27"
    INDEX 01 00:24:28
  TRACK 28 AUDIO
    TITLE "Step3_Track16_28"
    INDEX 01 00:24:36
  TRACK 29 AUDIO
    TITLE "Step3_Track16_29"
    INDEX 01 00:25:42
  TRACK 30 AUDIO
    TITLE "Step3_Track16_30"
    INDEX 01 00:25:57
  TRACK 31 AUDIO
    TITLE "Step3_Track16_31"
    INDEX 01 00:27:72
  TRACK 32 AUDIO
    TITLE "Step3_Track16_32"
    INDEX 01 00:28:16
  TRACK 33 AUDIO
    TITLE "Step3_Track16_33"
    INDEX 01 00:29:04
  TRACK 34 AUDIO
    TITLE "Step3_Track16_34"
    INDEX 01 00:29:08
  TRACK 35 AUDIO
    TITLE "Step3_Track16_35"
    INDEX 01 00:31:27
  TRACK 36 AUDIO
    TITLE "Step3_Track16_36"
    INDEX 01 00:31:42
  TRACK 37 AUDIO
    TITLE "Step3_Track16_37"
    INDEX 01 00:32:48
  TRACK 38 AUDIO
    TITLE "Step3_Track16_38"
    INDEX 01 00:32:49
  TRACK 39 AUDIO
    TITLE "Step3_Track16_39"
    INDEX 01 00:34:43
  TRACK 40 AUDIO
    TITLE "Step3_Track16_40"
    INDEX 01 00:34:66
  TRACK 41 AUDIO
    TITLE "Step3_Track16_41"
    INDEX 01 00:35:64
  TRACK 42 AUDIO
    TITLE "Step3_Track16_42"
    INDEX 01 00:36:08
  TRACK 43 AUDIO
    TITLE "Step3_Track16_43"
    INDEX 01 00:38:54
